<svg xmlns="http://www.w3.org/2000/svg" width="512" height="512" viewBox="0 0 512 512">
  <title>TIAM Beauty AI icon</title>
  <defs>
    <linearGradient id="gold" x1="126" x2="386" y1="126" y2="386" gradientUnits="userSpaceOnUse">
      <stop stop-color="#F7E7B9" />
      <stop offset="0.56" stop-color="#C9A96E" />
      <stop offset="1" stop-color="#8F6B2F" />
    </linearGradient>
    <radialGradient id="aura" cx="50%" cy="44%" r="62%">
      <stop stop-color="#F7E7B9" stop-opacity="0.3" />
      <stop offset="0.58" stop-color="#C9A96E" stop-opacity="0.08" />
      <stop offset="1" stop-color="#0B0B0B" stop-opacity="0" />
    </radialGradient>
  </defs>
  <rect width="512" height="512" rx="112" fill="#0B0B0B" />
  <circle cx="256" cy="244" r="214" fill="url(#aura)" />
  <path
    d="M256 94c-86 0-149 70-149 162s63 162 149 162 149-70 149-162S342 94 256 94Z"
    fill="none"
    stroke="url(#gold)"
    stroke-width="29"
  />
  <path
    d="M176 188h160M256 188v151"
    fill="none"
    stroke="#F7E7B9"
    stroke-linecap="round"
    stroke-width="30"
  />
  <circle cx="203" cy="252" r="19" fill="#D9A6A6" />
  <circle cx="309" cy="252" r="19" fill="#D9A6A6" />
  <path
    d="M379 108l15 40 40 15-40 15-15 40-15-40-40-15 40-15Z"
    fill="#D9A6A6"
  />
</svg>
